<svg width="37" height="49" viewBox="0 0 37 49" fill="none" xmlns="http://www.w3.org/2000/svg">
<g clip-path="url(#clip0)">
<path d="M35.6414 9.37012L27.5573 1.34063C26.6901 0.479297 25.5146 -0.00878906 24.2909 -0.00878906H4.625C2.07161 0.00078125 0 2.0584 0 4.59453V44.407C0 46.9432 2.07161 49.0008 4.625 49.0008H32.375C34.9284 49.0008 37 46.9432 37 44.407V12.624C37 11.4086 36.5086 10.2314 35.6414 9.37012ZM31.9992 12.2508H24.6667V4.96777L31.9992 12.2508ZM4.625 44.407V4.59453H20.0417V14.5477C20.0417 15.8205 21.0727 16.8445 22.3542 16.8445H32.375V44.407H4.625ZM28.7328 30.6545C27.5573 29.5061 24.2042 29.8219 22.5276 30.0324C20.8703 29.0275 19.7622 27.6398 18.9818 25.6014C19.3576 24.0605 19.9549 21.7158 19.5021 20.242C19.0974 17.7346 15.8599 17.9834 15.3974 19.6773C14.9734 21.2182 15.3589 23.3619 16.0719 26.099C15.1083 28.3863 13.6727 31.4584 12.6609 33.2193C10.7339 34.2051 8.13229 35.7268 7.74687 37.6408C7.42891 39.1529 10.2521 42.9236 15.0794 34.6549C17.2378 33.9467 19.5888 33.0758 21.6701 32.7313C23.4911 33.7074 25.6206 34.3582 27.0466 34.3582C29.5036 34.3582 29.7445 31.6594 28.7328 30.6545ZM9.64505 38.1002C10.1365 36.7891 12.0057 35.277 12.5742 34.7506C10.7435 37.6504 9.64505 38.1672 9.64505 38.1002ZM17.5076 19.8592C18.2206 19.8592 18.1531 22.9313 17.681 23.7639C17.257 22.4336 17.2667 19.8592 17.5076 19.8592ZM15.1565 32.9322C16.0911 31.3148 16.8909 29.3912 17.5365 27.6973C18.3362 29.1424 19.3576 30.3004 20.4367 31.0947C18.4326 31.5063 16.6885 32.3484 15.1565 32.9322ZM27.8367 32.4537C27.8367 32.4537 27.3549 33.0279 24.2427 31.7072C27.6247 31.4584 28.1836 32.224 27.8367 32.4537Z" fill="#FF3A24"/>
</g>
<defs>
<clipPath id="clip0">
<rect width="37" height="49" fill="white"/>
</clipPath>
</defs>
</svg>
