<svg width="149" height="78" viewBox="0 0 149 78" fill="none" xmlns="http://www.w3.org/2000/svg">
<path d="M50.111 8.74536C54.0464 8.10765 58.0829 8.81204 61.5651 10.7442C65.0474 12.6763 67.771 15.7227 69.2937 19.3888C70.1804 21.5189 70.6185 23.8073 70.5808 26.1125C70.5824 27.9562 70.2761 29.7873 69.6744 31.531C69.0822 33.2754 68.2252 34.9195 67.1333 36.406C64.9351 39.4147 61.8204 41.6381 58.2515 42.7462C54.6826 43.8543 50.8496 43.7881 47.3215 42.5574C44.4436 41.5647 41.8641 39.8652 39.8223 37.6166C38.7953 36.4821 37.9291 35.2131 37.248 33.845C36.5939 32.5095 36.1074 31.099 35.7995 29.6453C35.4914 28.205 35.3717 26.7311 35.4436 25.2602C35.5186 23.7884 35.7672 22.3305 36.1844 20.9164C36.6025 19.4926 37.2197 18.1343 38.0178 16.8813C38.2861 16.3831 38.5976 15.9091 38.949 15.465H39.0028C40.3237 13.6751 42 12.1742 43.9278 11.0552C45.8361 9.92912 47.9293 9.14715 50.111 8.74536ZM61.931 32.1157C62.6888 31.0082 63.2359 29.7717 63.5451 28.4677C63.8559 27.1666 63.9218 25.8194 63.7396 24.4944C63.5547 23.2518 63.1468 22.0524 62.5352 20.9534C61.811 19.6578 60.8445 18.5119 59.6878 17.5772C58.5359 16.6428 57.1904 15.9735 55.7478 15.6173C54.324 15.2199 52.8316 15.1272 51.3691 15.3455C49.8897 15.5614 48.4725 16.0847 47.2098 16.8813C45.5836 17.9171 44.2626 19.3635 43.3815 21.0729C42.4747 22.7776 42.058 24.698 42.1772 26.6231C42.237 28.1067 42.6286 29.5583 43.3236 30.8723C43.5057 31.1975 43.6795 31.5352 43.845 31.881C44.0127 32.229 44.2049 32.5647 44.4203 32.8857C44.0947 32.3367 43.7843 31.774 43.4891 31.1975C44.0732 32.2509 44.8315 33.1989 45.7323 34.0015C46.6446 34.8186 47.6793 35.4896 48.799 35.9902C49.9592 36.4892 51.2027 36.7685 52.4659 36.8137C53.729 36.8696 54.9916 36.6938 56.1907 36.2949C57.3523 35.9308 58.4438 35.374 59.4188 34.6479C60.3866 33.9426 61.2347 33.0877 61.931 32.1157Z" fill="#FF3A24"/>
<path d="M29.5253 36.7107H25.8005C24.4071 36.6799 23.0361 36.3557 21.7777 35.7596C20.5508 35.1817 19.439 34.388 18.4958 33.4168C17.5576 32.4416 16.8084 31.3026 16.2857 30.057C15.7306 28.7666 15.4488 27.3761 15.458 25.9725L15.5118 11.8169C15.5167 11.3704 15.428 10.9278 15.2512 10.5173C15.0745 10.1068 14.8137 9.73749 14.4854 9.43294C14.1621 9.11583 13.7786 8.86587 13.3573 8.69763C12.9359 8.5294 12.4851 8.44624 12.0312 8.453C11.5807 8.44441 11.1331 8.52683 10.7155 8.69526C10.298 8.8637 9.91908 9.11465 9.60179 9.43294C9.27977 9.74316 9.0254 10.116 8.85451 10.5283C8.68363 10.9405 8.59989 11.3834 8.60851 11.8293V25.9849C8.59514 28.2956 9.06004 30.5844 9.97427 32.7086C10.8511 34.7522 12.0999 36.6171 13.6577 38.2094C15.2104 39.7971 17.0478 41.0818 19.0752 41.9974C21.1755 42.9447 23.4456 43.4627 25.7508 43.5209H29.5253C30.4319 43.5209 31.3015 43.1626 31.9426 42.5248C32.5837 41.887 32.9438 41.0219 32.9438 40.1199C32.9449 39.6726 32.8573 39.2295 32.686 38.8159C32.5147 38.4023 32.263 38.0264 31.9455 37.7097C31.6279 37.3931 31.2507 37.1418 30.8354 36.9704C30.4201 36.7989 29.9749 36.7107 29.5253 36.7107Z" fill="#FF3A24"/>
<path d="M136.981 43.5168C138.858 43.5168 140.379 42.0034 140.379 40.1364C140.379 38.2695 138.858 36.756 136.981 36.756C135.105 36.756 133.583 38.2695 133.583 40.1364C133.583 42.0034 135.105 43.5168 136.981 43.5168Z" fill="#FF3A24"/>
<path d="M96.6418 57.0013C95.4066 57.0017 94.1962 56.6564 93.1488 56.0049C93.1074 56.2643 93.066 56.5236 93.004 56.7789C92.6956 58.0832 92.1484 59.3198 91.3899 60.4269C90.6936 61.4086 89.8442 62.2731 88.8736 62.988C87.8977 63.7152 86.8047 64.2721 85.6413 64.6349C83.223 65.4387 80.5912 65.3228 78.2538 64.3096C77.1355 63.8105 76.1022 63.1409 75.1912 62.3251C74.304 61.5318 73.5545 60.5983 72.9729 59.5623C72.9108 59.4388 72.8487 59.3111 72.7825 59.1917C72.0886 57.8786 71.6957 56.4289 71.6319 54.9467C71.5151 53.0147 71.9331 51.0879 72.8404 49.3758C73.7231 47.6663 75.0455 46.22 76.6728 45.1843C77.9324 44.3835 79.3488 43.8586 80.828 43.6444C82.2904 43.4242 83.7832 43.5169 85.2067 43.9162C86.6496 44.2715 87.9953 44.9409 89.1467 45.8761C89.435 46.1105 89.7113 46.3593 89.9745 46.6213V38.5059C89.285 38.187 88.5758 37.912 87.8513 37.6824C85.1823 36.8156 82.3408 36.6106 79.574 37.0854C77.3944 37.4812 75.3016 38.2547 73.3909 39.3706C71.461 40.4884 69.7832 41.9894 68.4617 43.7803H68.4079C68.0603 44.2272 67.7489 44.7008 67.4767 45.1967C66.6795 46.4574 66.0624 47.8224 65.6433 49.2523C65.2285 50.671 64.9813 52.1329 64.9066 53.6085C64.8329 55.078 64.9525 56.5508 65.2625 57.9894C65.5728 59.4399 66.0593 60.8474 66.7111 62.181C67.3938 63.5444 68.2599 64.809 69.2853 65.9401C71.3246 68.1899 73.903 69.8896 76.7804 70.881C78.2291 71.3873 79.7393 71.6988 81.2709 71.8074C84.2072 71.9929 87.1433 71.4407 89.8089 70.2016C92.5043 68.9847 94.8411 67.1008 96.5963 64.7296C97.692 63.2447 98.5505 61.6003 99.1416 59.8546C99.555 58.6465 99.8258 57.3946 99.9486 56.1243C98.9427 56.6998 97.8023 57.0022 96.6418 57.0013ZM73.304 60.184C73.2129 59.9905 73.1094 59.8052 73.0101 59.6199C73.2874 60.1593 73.573 60.6822 73.8792 61.1887C73.6615 60.8692 73.4691 60.5333 73.304 60.184Z" fill="#FF3A24"/>
<path d="M127.169 19.3889C126.295 17.2598 125.002 15.3264 123.365 13.7027C121.391 11.7084 118.962 10.2178 116.284 9.3576C113.607 8.49739 110.76 8.29302 107.986 8.76185C105.81 9.15373 103.72 9.92303 101.811 11.0347C99.8833 12.1537 98.2071 13.6546 96.8861 15.4444H96.8447C96.4881 15.8964 96.1697 16.3771 95.8928 16.8814C95.0929 18.1407 94.4757 19.506 94.0594 20.937C93.7009 22.1648 93.4693 23.4257 93.3683 24.7003C93.3336 24.8919 93.3156 25.0862 93.3145 25.2809V25.7297C93.3145 26.0316 93.3145 26.3322 93.3145 26.6314V50.2323C93.3145 51.1108 93.6652 51.9533 94.2897 52.5745C94.9141 53.1957 95.761 53.5447 96.644 53.5447C97.5271 53.5447 98.3739 53.1957 98.9984 52.5745C99.6228 51.9533 99.9736 51.1108 99.9736 50.2323V39.7082C100.346 39.9964 100.723 40.2805 101.12 40.5317C102.389 41.3692 103.759 42.0456 105.197 42.5451C108.729 43.7334 112.548 43.7783 116.107 42.6731C119.667 41.568 122.783 39.3698 125.008 36.3937C126.1 34.9063 126.958 33.2626 127.554 31.5187C128.152 29.7742 128.457 27.9435 128.456 26.1002C128.494 23.799 128.056 21.5145 127.169 19.3889ZM121.424 28.4471C121.115 29.7511 120.568 30.9876 119.81 32.0951C119.112 33.0769 118.262 33.9415 117.29 34.6562C116.315 35.3822 115.223 35.9391 114.062 36.3031C112.862 36.702 111.6 36.8779 110.337 36.8219C109.074 36.7767 107.83 36.4974 106.67 35.9984C105.551 35.4978 104.518 34.8269 103.607 34.0097C102.718 33.22 101.968 32.2875 101.389 31.2511C101.323 31.1276 101.265 30.9999 101.199 30.8805C100.502 29.5668 100.109 28.1152 100.048 26.6314C99.9329 24.7066 100.349 22.7872 101.252 21.0811C102.134 19.3671 103.458 17.9175 105.089 16.8814C106.354 16.0774 107.776 15.5497 109.261 15.3332C110.722 15.1149 112.213 15.2075 113.635 15.605C115.078 15.9612 116.423 16.6305 117.575 17.5648C118.733 18.4984 119.7 19.6446 120.423 20.9411C121.034 22.0401 121.442 23.2395 121.627 24.4821C121.805 25.8077 121.736 27.1545 121.424 28.4554V28.4471Z" fill="#FF3A24"/>
</svg>
