<svg width="86" height="45" viewBox="0 0 96 50" fill="none" xmlns="http://www.w3.org/2000/svg">
<path d="M32.2862 5.606C34.8218 5.19721 37.4225 5.64874 39.6661 6.88729C41.9097 8.12584 43.6645 10.0787 44.6456 12.4287C45.2169 13.7942 45.4991 15.2611 45.4748 16.7388C45.4759 17.9206 45.2786 19.0944 44.8909 20.2122C44.5093 21.3304 43.9572 22.3843 43.2536 23.3372C41.8373 25.2658 39.8306 26.6911 37.5311 27.4014C35.2317 28.1117 32.7621 28.0693 30.489 27.2804C28.6348 26.644 26.9728 25.5546 25.6573 24.1132C24.9956 23.386 24.4375 22.5725 23.9987 21.6955C23.5773 20.8394 23.2638 19.9352 23.0654 19.0034C22.8669 18.0801 22.7898 17.1353 22.8361 16.1925C22.8844 15.249 23.0446 14.3144 23.3134 13.4079C23.5828 12.4952 23.9804 11.6245 24.4947 10.8214C24.6675 10.502 24.8682 10.1982 25.0946 9.91343H25.1293C25.9804 8.76611 27.0604 7.80399 28.3025 7.08668C29.532 6.36482 30.8806 5.86356 32.2862 5.606V5.606ZM39.9018 20.587C40.39 19.877 40.7425 19.0844 40.9418 18.2485C41.142 17.4145 41.1845 16.5509 41.0671 15.7015C40.948 14.905 40.6851 14.1362 40.2911 13.4317C39.8245 12.6012 39.2018 11.8666 38.4566 11.2674C37.7143 10.6685 36.8475 10.2394 35.918 10.0111C35.0007 9.75632 34.0391 9.69695 33.0969 9.83689C32.1437 9.97526 31.2306 10.3107 30.417 10.8214C29.3692 11.4853 28.5181 12.4125 27.9505 13.5082C27.3662 14.601 27.0977 15.8321 27.1745 17.0661C27.2131 18.0171 27.4654 18.9476 27.9131 19.7899C28.0305 19.9984 28.1425 20.2148 28.2491 20.4366C28.3571 20.6596 28.481 20.8748 28.6198 21.0806C28.41 20.7286 28.21 20.3679 28.0198 19.9984C28.3961 20.6737 28.8847 21.2813 29.4651 21.7958C30.0529 22.3196 30.7195 22.7497 31.441 23.0706C32.1884 23.3905 32.9897 23.5695 33.8035 23.5985C34.6173 23.6344 35.4308 23.5216 36.2034 23.2659C36.9518 23.0326 37.655 22.6756 38.2832 22.2102C38.9068 21.7581 39.4532 21.2101 39.9018 20.587V20.587Z" fill="#FF3A24"/>
<path d="M19.0229 23.5325H16.6231C15.7253 23.5128 14.842 23.305 14.0312 22.9228C13.2407 22.5524 12.5244 22.0436 11.9167 21.421C11.3122 20.7959 10.8295 20.0658 10.4927 19.2673C10.1351 18.4401 9.95351 17.5488 9.95944 16.6491L9.9941 7.57496C9.99727 7.28872 9.94009 7.00498 9.82623 6.74185C9.71236 6.47872 9.54431 6.24199 9.33281 6.04677C9.1245 5.84349 8.87742 5.68326 8.60595 5.57542C8.33448 5.46757 8.04405 5.41427 7.75156 5.4186C7.4613 5.4131 7.17293 5.46593 6.90389 5.5739C6.63486 5.68187 6.39074 5.84274 6.18631 6.04677C5.97884 6.24563 5.81494 6.48463 5.70484 6.74891C5.59474 7.01318 5.54079 7.29707 5.54635 7.58288V16.657C5.53773 18.1382 5.83727 19.6054 6.4263 20.9671C6.99125 22.2771 7.79582 23.4725 8.7995 24.4932C9.79989 25.5109 10.9837 26.3345 12.29 26.9215C13.6432 27.5287 15.1058 27.8607 16.5911 27.898H19.0229C19.6071 27.898 20.1673 27.6683 20.5804 27.2595C20.9934 26.8506 21.2255 26.2961 21.2255 25.7179C21.2262 25.4312 21.1697 25.1471 21.0594 24.882C20.949 24.6169 20.7869 24.3759 20.5823 24.1729C20.3777 23.9699 20.1346 23.8089 19.867 23.699C19.5995 23.5891 19.3126 23.5325 19.0229 23.5325V23.5325Z" fill="#FF3A24"/>
<path d="M88.2564 27.8954C89.4655 27.8954 90.4457 26.9252 90.4457 25.7285C90.4457 24.5317 89.4655 23.5616 88.2564 23.5616C87.0474 23.5616 86.0672 24.5317 86.0672 25.7285C86.0672 26.9252 87.0474 27.8954 88.2564 27.8954Z" fill="#FF3A24"/>
<path d="M62.2659 36.5393C61.47 36.5395 60.6902 36.3182 60.0154 35.9006C59.9887 36.0668 59.962 36.2331 59.922 36.3968C59.7233 37.2328 59.3708 38.0255 58.8821 38.7352C58.4335 39.3645 57.8862 39.9187 57.2608 40.3769C56.6321 40.8431 55.9279 41.2001 55.1783 41.4327C53.6202 41.9479 51.9245 41.8736 50.4185 41.2241C49.698 40.9042 49.0323 40.4749 48.4453 39.952C47.8737 39.4435 47.3908 38.8451 47.0161 38.181C46.9761 38.1018 46.9361 38.02 46.8934 37.9434C46.4464 37.1017 46.1932 36.1724 46.1521 35.2222C46.0768 33.9838 46.3461 32.7487 46.9307 31.6512C47.4995 30.5553 48.3514 29.6282 49.3999 28.9643C50.2115 28.451 51.1241 28.1145 52.0771 27.9772C53.0193 27.8361 53.9811 27.8954 54.8983 28.1514C55.8279 28.3792 56.6949 28.8083 57.4368 29.4077C57.6226 29.558 57.8006 29.7175 57.9701 29.8855V24.6833C57.5259 24.4789 57.069 24.3026 56.6022 24.1554C54.8826 23.5998 53.0518 23.4684 51.2692 23.7727C49.8649 24.0264 48.5165 24.5222 47.2854 25.2376C46.042 25.9541 44.961 26.9163 44.1096 28.0643H44.0749C43.8509 28.3508 43.6503 28.6544 43.4749 28.9722C42.9613 29.7804 42.5637 30.6554 42.2937 31.572C42.0264 32.4814 41.8671 33.4186 41.819 34.3645C41.7715 35.3064 41.8486 36.2505 42.0483 37.1727C42.2483 38.1025 42.5617 39.0047 42.9816 39.8596C43.4215 40.7336 43.9795 41.5443 44.6402 42.2693C45.9541 43.7115 47.6154 44.801 49.4693 45.4366C50.4027 45.7611 51.3756 45.9608 52.3624 46.0304C54.2543 46.1493 56.146 45.7953 57.8635 45.0011C59.6001 44.221 61.1057 43.0133 62.2366 41.4934C62.9425 40.5415 63.4956 39.4874 63.8765 38.3684C64.1428 37.5939 64.3173 36.7914 64.3964 35.9771C63.7483 36.346 63.0136 36.5399 62.2659 36.5393ZM47.2294 38.5795C47.1707 38.4555 47.1041 38.3367 47.0401 38.2179C47.2187 38.5637 47.4027 38.8989 47.6 39.2235C47.4597 39.0187 47.3358 38.8034 47.2294 38.5795V38.5795Z" fill="#FF3A24"/>
<path d="M81.9341 12.4287C81.3714 11.0639 80.5382 9.82457 79.4836 8.78378C78.2115 7.50537 76.6464 6.54985 74.9213 5.99844C73.1962 5.44703 71.362 5.31602 69.5748 5.61655C68.1727 5.86776 66.8261 6.3609 65.5964 7.07348C64.3543 7.79079 63.2743 8.75291 62.4232 9.90023H62.3965C62.1668 10.19 61.9616 10.4981 61.7832 10.8214C61.2679 11.6286 60.8702 12.5038 60.602 13.4211C60.371 14.2082 60.2218 15.0165 60.1567 15.8335C60.1343 15.9563 60.1227 16.0809 60.122 16.2057V16.4933C60.122 16.6869 60.122 16.8796 60.122 17.0714V32.2002C60.122 32.7633 60.348 33.3034 60.7503 33.7016C61.1526 34.0998 61.6983 34.3235 62.2672 34.3235C62.8362 34.3235 63.3818 34.0998 63.7841 33.7016C64.1864 33.3034 64.4124 32.7633 64.4124 32.2002V25.454C64.6524 25.6387 64.8951 25.8208 65.1511 25.9818C65.9688 26.5187 66.8512 26.9523 67.7776 27.2725C70.0533 28.0342 72.5142 28.063 74.8074 27.3546C77.1006 26.6461 79.1082 25.237 80.5422 23.3293C81.2456 22.3758 81.7985 21.3221 82.1821 20.2043C82.5677 19.086 82.7641 17.9125 82.7634 16.7309C82.7879 15.2557 82.5056 13.7914 81.9341 12.4287V12.4287ZM78.233 18.2353C78.0338 19.0712 77.6813 19.8638 77.1931 20.5738C76.7435 21.2031 76.1953 21.7573 75.5691 22.2155C74.9409 22.6809 74.2377 23.0378 73.4893 23.2712C72.7167 23.5269 71.9032 23.6396 71.0894 23.6038C70.2756 23.5748 69.4743 23.3958 68.7269 23.0759C68.0062 22.755 67.3405 22.3249 66.7536 21.8011C66.1807 21.2948 65.6976 20.6971 65.3244 20.0327C65.2817 19.9535 65.2444 19.8717 65.2017 19.7952C64.7531 18.9531 64.4999 18.0226 64.4604 17.0714C64.3862 15.8375 64.6546 14.6072 65.2364 13.5135C65.8042 12.4148 66.6574 11.4856 67.7083 10.8214C68.5231 10.306 69.4393 9.96774 70.3961 9.82897C71.3375 9.68901 72.2981 9.74838 73.2146 10.0032C74.144 10.2315 75.0109 10.6606 75.7531 11.2595C76.4991 11.858 77.1219 12.5927 77.5877 13.4238C77.9817 14.1282 78.2445 14.8971 78.3637 15.6936C78.4781 16.5434 78.4338 17.4067 78.233 18.2406V18.2353Z" fill="#FF3A24"/>
</svg>
