<svg width="46" height="37" viewBox="0 0 46 37" fill="none" xmlns="http://www.w3.org/2000/svg">
<path d="M21.8784 13.6135L23 14.8767L24.1216 13.6135C26.417 11.0285 29.7558 8.4375 33.8603 8.4375C39.7932 8.4375 44.5 13.0227 44.5 18.5C44.5 23.9773 39.7932 28.5625 33.8603 28.5625C29.7558 28.5625 26.417 25.9715 24.1216 23.3865L23 22.1233L21.8784 23.3865C19.583 25.9715 16.2442 28.5625 12.1397 28.5625C6.20682 28.5625 1.5 23.9773 1.5 18.5C1.5 13.0227 6.20682 8.4375 12.1397 8.4375C16.2442 8.4375 19.583 11.0285 21.8784 13.6135ZM20.1045 19.3885L20.7573 18.5005L20.105 17.6121C19.3155 16.5371 18.2198 15.2653 16.914 14.2481C15.6238 13.2431 13.9839 12.375 12.1397 12.375C8.60339 12.375 5.4 14.9501 5.4 18.5C5.4 22.0499 8.60339 24.625 12.1397 24.625C13.9831 24.625 15.6274 23.7488 16.9171 22.7435C18.2242 21.7246 19.3213 20.4538 20.1045 19.3885ZM25.8955 17.6115L25.2427 18.4995L25.895 19.3879C26.6845 20.4629 27.7802 21.7347 29.086 22.7519C30.3762 23.7569 32.0161 24.625 33.8603 24.625C37.3966 24.625 40.6 22.0499 40.6 18.5C40.6 14.9501 37.3966 12.375 33.8603 12.375C32.0169 12.375 30.3726 13.2512 29.0829 14.2565C27.7758 15.2754 26.6787 16.5462 25.8955 17.6115Z" fill="white" stroke="white" stroke-width="3"/>
</svg>
