<svg width="305" height="148" viewBox="0 0 305 148" fill="none" xmlns="http://www.w3.org/2000/svg">
<path d="M96.0179 1.29347C105.094 -0.188185 114.404 1.44839 122.435 5.93748C130.467 10.4266 136.748 17.5046 140.26 26.0224C142.305 30.9714 143.316 36.2882 143.229 41.6442C143.233 45.9277 142.526 50.182 141.138 54.2334C139.773 58.2863 137.796 62.106 135.278 65.5599C130.208 72.5502 123.024 77.7159 114.793 80.2905C106.562 82.8651 97.7216 82.7113 89.5844 79.852C82.9469 77.5455 76.9977 73.597 72.2884 68.3724C69.9197 65.7367 67.9221 62.7884 66.3512 59.6097C64.8426 56.5067 63.7206 53.2296 63.0104 49.8521C62.2997 46.5057 62.0238 43.0812 62.1895 39.6639C62.3625 36.2443 62.936 32.8569 63.8981 29.5715C64.8624 26.2634 66.2858 23.1075 68.1266 20.1965C68.7453 19.0388 69.4639 17.9377 70.2743 16.9057L70.3984 16.9057C73.445 12.7472 77.3111 9.26005 81.7573 6.66017C86.1585 4.0438 90.9862 2.22699 96.0179 1.29347ZM123.279 55.5918C125.027 53.0186 126.289 50.1458 127.002 47.1161C127.719 44.0931 127.871 40.9631 127.451 37.8846C127.024 34.9976 126.083 32.2109 124.673 29.6576C123.002 26.6474 120.773 23.9848 118.106 21.8132C115.449 19.6423 112.346 18.0873 109.019 17.2596C105.735 16.3362 102.293 16.1211 98.9197 16.6283C95.5076 17.1298 92.2391 18.3455 89.3267 20.1965C85.5761 22.603 82.5294 25.9634 80.4973 29.935C78.4058 33.8957 77.4447 38.3577 77.7197 42.8304C77.8576 46.2773 78.7609 49.65 80.3637 52.7028C80.7837 53.4586 81.1846 54.243 81.5664 55.0466C81.953 55.8551 82.3964 56.6351 82.8932 57.3807C82.1423 56.1052 81.4264 54.7978 80.7455 53.4586C82.0925 55.906 83.8415 58.1084 85.919 59.9732C88.0233 61.8718 90.4095 63.4306 92.9921 64.5937C95.6679 65.7531 98.536 66.402 101.449 66.507C104.362 66.637 107.274 66.2284 110.04 65.3017C112.719 64.4558 115.236 63.162 117.485 61.4751C119.717 59.8363 121.673 57.8501 123.279 55.5918Z" fill="white"/>
<path d="M48.5399 66.2678L39.9491 66.2678C36.7354 66.1962 33.5733 65.4431 30.6711 64.058C27.8415 62.7153 25.2771 60.8712 23.1017 58.6148C20.938 56.3491 19.21 53.7027 18.0045 50.8086C16.7241 47.8105 16.0742 44.58 16.0955 41.3189L16.2195 8.42988C16.2309 7.39243 16.0262 6.36401 15.6186 5.41031C15.211 4.4566 14.6094 3.59856 13.8523 2.89099C13.1067 2.1542 12.2222 1.57346 11.2504 1.18258C10.2786 0.791701 9.23897 0.598492 8.19197 0.614205C7.15294 0.594254 6.12067 0.785739 5.1576 1.17708C4.19453 1.56842 3.32067 2.15148 2.58889 2.89099C1.84619 3.61174 1.25951 4.47802 0.865385 5.43588C0.47126 6.39374 0.278131 7.42267 0.298027 8.45858L0.298033 41.3476C0.267189 46.7163 1.33942 52.0339 3.44798 56.9694C5.47032 61.7175 8.3504 66.0504 11.9433 69.7499C15.5243 73.4386 19.7621 76.4236 24.438 78.5509C29.2821 80.7518 34.5177 81.9554 39.8346 82.0905L48.5399 82.0905C50.6309 82.0905 52.6364 81.258 54.115 79.7761C55.5936 78.2942 56.4242 76.2844 56.4242 74.1887C56.4268 73.1494 56.2247 72.1198 55.8296 71.1589C55.4345 70.1981 54.8541 69.3247 54.1217 68.5889C53.3893 67.8532 52.5193 67.2694 51.5615 66.8711C50.6037 66.4728 49.5769 66.2678 48.5399 66.2678Z" fill="white"/>
<path d="M296.373 82.0802C300.701 82.0802 304.209 78.5641 304.209 74.2267C304.209 69.8893 300.701 66.3732 296.373 66.3732C292.045 66.3732 288.537 69.8893 288.537 74.2267C288.537 78.5641 292.045 82.0802 296.373 82.0802Z" fill="white"/>
<path d="M203.336 113.411C200.487 113.412 197.695 112.609 195.279 111.096C195.184 111.698 195.089 112.301 194.945 112.894C194.234 115.924 192.972 118.798 191.223 121.37C189.617 123.651 187.658 125.659 185.419 127.32C183.168 129.01 180.648 130.304 177.964 131.147C172.387 133.014 166.317 132.745 160.926 130.391C158.347 129.231 155.964 127.675 153.862 125.78C151.816 123.937 150.088 121.768 148.746 119.361C148.603 119.074 148.46 118.777 148.307 118.5C146.707 115.449 145.801 112.081 145.654 108.637C145.384 104.148 146.348 99.6717 148.441 95.6939C150.477 91.7219 153.526 88.3617 157.28 85.9554C160.185 84.0948 163.452 82.8752 166.863 82.3776C170.236 81.866 173.679 82.0812 176.962 83.009C180.29 83.8346 183.393 85.3898 186.049 87.5625C186.714 88.1073 187.351 88.6852 187.958 89.294L187.958 70.4388C186.368 69.6979 184.732 69.0589 183.061 68.5256C176.906 66.5116 170.352 66.0354 163.971 67.1385C158.944 68.058 154.117 69.8551 149.71 72.4478C145.259 75.0448 141.39 78.5324 138.342 82.6933L138.218 82.6933C137.416 83.7315 136.698 84.8319 136.07 85.9841C134.231 88.9133 132.808 92.0846 131.842 95.4069C130.885 98.703 130.315 102.1 130.142 105.528C129.972 108.942 130.248 112.364 130.963 115.707C131.679 119.076 132.801 122.347 134.304 125.445C135.879 128.613 137.876 131.551 140.241 134.179C144.945 139.406 150.892 143.355 157.528 145.659C160.869 146.835 164.352 147.559 167.884 147.811C174.657 148.242 181.428 146.959 187.576 144.08C193.793 141.253 199.183 136.876 203.231 131.367C205.758 127.917 207.738 124.096 209.101 120.04C210.054 117.233 210.679 114.325 210.962 111.373C208.642 112.71 206.012 113.413 203.336 113.411ZM149.51 120.805C149.3 120.356 149.061 119.925 148.832 119.495C149.472 120.748 150.13 121.963 150.837 123.14C150.334 122.397 149.891 121.617 149.51 120.805Z" fill="white"/>
<path d="M273.741 26.0225C271.727 21.0759 268.744 16.5838 264.969 12.8115C260.416 8.17787 254.813 4.71462 248.638 2.71603C242.462 0.71744 235.897 0.242607 229.499 1.33188C224.48 2.24238 219.659 4.02976 215.258 6.61249C210.811 9.21237 206.945 12.6996 203.899 16.858L203.803 16.858C202.981 17.9082 202.246 19.0249 201.608 20.1967C199.763 23.1226 198.339 26.2948 197.379 29.6195C196.552 32.4721 196.018 35.4018 195.785 38.3631C195.705 38.8083 195.664 39.2596 195.661 39.7119L195.661 40.7547C195.661 41.4562 195.661 42.1545 195.661 42.8497L195.661 97.6838C195.661 99.7249 196.47 101.682 197.91 103.126C199.35 104.569 201.304 105.38 203.34 105.38C205.377 105.38 207.33 104.569 208.77 103.126C210.21 101.682 211.019 99.7249 211.019 97.6838L211.019 73.2323C211.879 73.9019 212.747 74.562 213.664 75.1455C216.591 77.0915 219.749 78.663 223.066 79.8235C231.212 82.5844 240.021 82.6885 248.23 80.1209C256.439 77.5533 263.626 72.4459 268.759 65.5314C271.277 62.0756 273.256 58.2566 274.629 54.2049C276.009 50.1518 276.712 45.8982 276.71 41.6156C276.798 36.2689 275.787 30.9613 273.741 26.0225ZM260.493 47.0684C259.779 50.0981 258.518 52.9709 256.77 55.5442C255.161 57.8251 253.198 59.8339 250.957 61.4944C248.708 63.1813 246.191 64.475 243.512 65.3209C240.746 66.2477 237.834 66.6563 234.921 66.5263C232.008 66.4213 229.139 65.7724 226.464 64.613C223.884 63.4499 221.501 61.891 219.4 59.9925C217.349 58.1576 215.62 55.9911 214.284 53.5831C214.131 53.2961 213.998 52.9995 213.845 52.7221C212.239 49.6699 211.333 46.2973 211.191 42.8497C210.926 38.3777 211.886 33.9182 213.969 29.9543C216.002 25.972 219.056 22.6041 222.817 20.1967C225.734 18.3287 229.014 17.1027 232.439 16.5997C235.809 16.0924 239.248 16.3076 242.528 17.2311C245.855 18.0588 248.959 19.6138 251.616 21.7847C254.286 23.9538 256.515 26.6168 258.183 29.629C259.593 32.1824 260.534 34.969 260.96 37.8561C261.37 40.936 261.211 44.065 260.493 47.0875L260.493 47.0684Z" fill="white"/>
</svg>
