<svg width="50" height="30" viewBox="0 0 50 30" fill="none" xmlns="http://www.w3.org/2000/svg">
<path d="M38.9922 5.41251V17.91L29.5308 10.232L30.7143 9.14865L30.7172 9.14594C31.6218 8.31119 31.7027 6.89235 30.8547 5.97067C30.015 5.04934 28.5873 5.00374 27.6796 5.82735L27.6762 5.83046L21.5127 11.4751C21.4799 11.4977 21.4446 11.5249 21.4085 11.5575C20.9923 11.9265 20.4288 12.0862 19.8466 12.0412C19.2512 11.9952 18.7328 11.7422 18.4334 11.4147L18.4325 11.4137C17.6737 10.5858 17.6667 9.26897 18.5441 8.44479L18.5554 8.43416L18.5664 8.42319C18.5871 8.40248 18.6046 8.38319 18.6188 8.3667L26.2375 1.39381C26.2376 1.39377 26.2376 1.39373 26.2376 1.39369C26.5147 1.14029 26.8755 1 27.25 1H33.9609C34.3614 1 34.7438 1.16105 35.0137 1.43538L35.0136 1.4354L35.0196 1.44134L38.9922 5.41251ZM36.6428 25.2622C36.1274 25.9027 35.1823 26.002 34.5364 25.4797C34.5362 25.4794 34.5359 25.4792 34.5356 25.479L34.1159 25.1371L33.3402 24.5053L32.7087 25.2813L30.2556 28.2958L30.2548 28.2968C29.5963 29.1082 28.3986 29.236 27.588 28.5824L26.2013 27.3821L25.4979 26.7732L24.8399 27.431L24.8242 27.4467L24.7881 27.4828L24.7558 27.5225C23.3663 29.2291 20.8609 29.4944 19.1504 28.12L12.1006 21.7425L11.8149 21.484H11.4297H11V5.41304L14.9798 1.44199L14.9804 1.44134C15.264 1.15788 15.6434 1 16.0391 1H20.0123L15.5201 5.11179L15.5193 5.11258C12.8322 7.57794 12.6391 11.7632 15.1139 14.467L15.1146 14.4678C17.5537 17.1269 21.7391 17.366 24.4708 14.8743L24.4725 14.8728L26.1803 13.3079L37.1719 22.2275C37.1723 22.2278 37.1727 22.2281 37.173 22.2284C37.8165 22.7552 37.9144 23.6961 37.3879 24.3448C37.3878 24.3449 37.3878 24.345 37.3877 24.345L36.6457 25.2586L36.6428 25.2622ZM43.5 22.4997V6.01381H49V23.9987H45C44.1691 23.9987 43.5 23.3293 43.5 22.4997ZM44 21.2501C44 22.49 45.0106 23.4997 46.25 23.4997C47.4894 23.4997 48.5 22.49 48.5 21.2501C48.5 20.0102 47.4894 19.0006 46.25 19.0006C45.0106 19.0006 44 20.0102 44 21.2501ZM5 23.9909H1V6.01381H6.5V22.4918C6.5 23.3215 5.83087 23.9909 5 23.9909ZM6 21.2501C6 20.0102 4.98944 19.0006 3.75 19.0006C2.51464 19.0006 1.5 19.9983 1.5 21.2501C1.5 22.49 2.51056 23.4997 3.75 23.4997C4.98944 23.4997 6 22.49 6 21.2501Z" fill="white" stroke="white" stroke-width="2"/>
</svg>
