<svg width="53" height="36" viewBox="0 0 53 36" fill="none" xmlns="http://www.w3.org/2000/svg">
<mask id="path-1-inside-1" fill="white">
<path d="M50.5624 24.852C50.7777 23.7187 50.7777 22.5613 50.5624 21.428L52.6992 20.2304C52.9476 20.0938 53.0553 19.8125 52.9725 19.5472C52.4176 17.8111 51.4651 16.2358 50.2228 14.9337C50.0323 14.7328 49.7259 14.6845 49.4774 14.8212L47.3406 16.0188C46.4379 15.2713 45.4026 14.6926 44.2845 14.3068V11.9116C44.2845 11.6383 44.0857 11.3972 43.8124 11.3409C41.9655 10.939 40.0855 10.9551 38.3297 11.3409C38.0564 11.3972 37.8576 11.6383 37.8576 11.9116V14.3068C36.7395 14.6926 35.7042 15.2713 34.8015 16.0188L32.6647 14.8212C32.4245 14.6845 32.1098 14.7328 31.9193 14.9337C30.677 16.2358 29.7245 17.8111 29.1696 19.5472C29.0868 19.8125 29.2028 20.0938 29.4429 20.2304L31.5797 21.428C31.3644 22.5613 31.3644 23.7187 31.5797 24.852L29.4429 26.0496C29.1945 26.1862 29.0868 26.4675 29.1696 26.7328C29.7245 28.4689 30.677 30.0362 31.9193 31.3463C32.1098 31.5472 32.4162 31.5954 32.6647 31.4588L34.8015 30.2612C35.7042 31.0087 36.7395 31.5874 37.8576 31.9732V34.3684C37.8576 34.6417 38.0564 34.8828 38.3297 34.939C40.1766 35.3409 42.0566 35.3248 43.8124 34.939C44.0857 34.8828 44.2845 34.6417 44.2845 34.3684V31.9732C45.4026 31.5874 46.4379 31.0087 47.3406 30.2612L49.4774 31.4588C49.7176 31.5954 50.0323 31.5472 50.2228 31.3463C51.4651 30.0442 52.4176 28.4689 52.9725 26.7328C53.0553 26.4675 52.9393 26.1862 52.6992 26.0496L50.5624 24.852ZM41.0793 27.0382C38.8597 27.0382 37.0625 25.286 37.0625 23.14C37.0625 20.994 38.868 19.2418 41.0793 19.2418C43.2907 19.2418 45.0962 20.994 45.0962 23.14C45.0962 25.286 43.2989 27.0382 41.0793 27.0382ZM7.95084 15.424C10.8744 15.424 13.2514 13.1172 13.2514 10.28C13.2514 7.44273 10.8744 5.13597 7.95084 5.13597C5.02725 5.13597 2.65028 7.44273 2.65028 10.28C2.65028 13.1172 5.02725 15.424 7.95084 15.424ZM26.5028 17.996C26.6602 17.996 26.8092 17.9558 26.9666 17.9478C27.654 16.2036 28.6644 14.564 29.973 13.1896C30.5859 12.5466 31.4555 12.1768 32.3665 12.1768C32.938 12.1768 33.5012 12.3215 33.9898 12.6028L34.6441 12.9725C34.7104 12.9324 34.7766 12.9002 34.8429 12.86C35.4226 11.6865 35.7705 10.3845 35.7705 9.00201C35.7705 4.02679 31.6211 0 26.4945 0C21.3679 0 17.2268 4.01875 17.2268 8.99397C17.2268 13.9692 21.3762 17.996 26.5028 17.996ZM35.2156 33.6289C35.0251 33.5325 34.8346 33.42 34.6524 33.3155C33.9733 33.7013 33.3852 34.1031 32.3748 34.1031C31.4721 34.1031 30.6024 33.7334 29.9813 33.0904C28.4657 31.499 27.3062 29.562 26.6519 27.4963C25.7657 24.7234 28.7141 23.5017 28.7887 23.4534C28.7804 23.2445 28.7804 23.0355 28.7887 22.8265L28.1344 22.4568C27.8197 22.28 27.5546 22.0549 27.3227 21.8058C27.0494 21.8218 26.7844 21.854 26.5111 21.854C24.4737 21.854 22.5688 21.3717 20.8378 20.568H20.1504C14.8747 20.568 10.6011 24.7153 10.6011 29.8272V32.142C10.6011 34.2719 12.3818 36 14.5765 36H35.7291C35.4226 35.5177 35.2156 34.9712 35.2156 34.3684V33.6289ZM14.3364 19.491C13.3756 18.5666 12.0588 17.996 10.6011 17.996H5.30056C2.37697 17.996 0 20.3027 0 23.14V25.712C0 27.1346 1.18434 28.284 2.65028 28.284H8.1082C8.62997 24.4742 10.9987 21.2672 14.3364 19.491Z"/>
</mask>
<path d="M50.5624 24.852C50.7777 23.7187 50.7777 22.5613 50.5624 21.428L52.6992 20.2304C52.9476 20.0938 53.0553 19.8125 52.9725 19.5472C52.4176 17.8111 51.4651 16.2358 50.2228 14.9337C50.0323 14.7328 49.7259 14.6845 49.4774 14.8212L47.3406 16.0188C46.4379 15.2713 45.4026 14.6926 44.2845 14.3068V11.9116C44.2845 11.6383 44.0857 11.3972 43.8124 11.3409C41.9655 10.939 40.0855 10.9551 38.3297 11.3409C38.0564 11.3972 37.8576 11.6383 37.8576 11.9116V14.3068C36.7395 14.6926 35.7042 15.2713 34.8015 16.0188L32.6647 14.8212C32.4245 14.6845 32.1098 14.7328 31.9193 14.9337C30.677 16.2358 29.7245 17.8111 29.1696 19.5472C29.0868 19.8125 29.2028 20.0938 29.4429 20.2304L31.5797 21.428C31.3644 22.5613 31.3644 23.7187 31.5797 24.852L29.4429 26.0496C29.1945 26.1862 29.0868 26.4675 29.1696 26.7328C29.7245 28.4689 30.677 30.0362 31.9193 31.3463C32.1098 31.5472 32.4162 31.5954 32.6647 31.4588L34.8015 30.2612C35.7042 31.0087 36.7395 31.5874 37.8576 31.9732V34.3684C37.8576 34.6417 38.0564 34.8828 38.3297 34.939C40.1766 35.3409 42.0566 35.3248 43.8124 34.939C44.0857 34.8828 44.2845 34.6417 44.2845 34.3684V31.9732C45.4026 31.5874 46.4379 31.0087 47.3406 30.2612L49.4774 31.4588C49.7176 31.5954 50.0323 31.5472 50.2228 31.3463C51.4651 30.0442 52.4176 28.4689 52.9725 26.7328C53.0553 26.4675 52.9393 26.1862 52.6992 26.0496L50.5624 24.852ZM41.0793 27.0382C38.8597 27.0382 37.0625 25.286 37.0625 23.14C37.0625 20.994 38.868 19.2418 41.0793 19.2418C43.2907 19.2418 45.0962 20.994 45.0962 23.14C45.0962 25.286 43.2989 27.0382 41.0793 27.0382ZM7.95084 15.424C10.8744 15.424 13.2514 13.1172 13.2514 10.28C13.2514 7.44273 10.8744 5.13597 7.95084 5.13597C5.02725 5.13597 2.65028 7.44273 2.65028 10.28C2.65028 13.1172 5.02725 15.424 7.95084 15.424ZM26.5028 17.996C26.6602 17.996 26.8092 17.9558 26.9666 17.9478C27.654 16.2036 28.6644 14.564 29.973 13.1896C30.5859 12.5466 31.4555 12.1768 32.3665 12.1768C32.938 12.1768 33.5012 12.3215 33.9898 12.6028L34.6441 12.9725C34.7104 12.9324 34.7766 12.9002 34.8429 12.86C35.4226 11.6865 35.7705 10.3845 35.7705 9.00201C35.7705 4.02679 31.6211 0 26.4945 0C21.3679 0 17.2268 4.01875 17.2268 8.99397C17.2268 13.9692 21.3762 17.996 26.5028 17.996ZM35.2156 33.6289C35.0251 33.5325 34.8346 33.42 34.6524 33.3155C33.9733 33.7013 33.3852 34.1031 32.3748 34.1031C31.4721 34.1031 30.6024 33.7334 29.9813 33.0904C28.4657 31.499 27.3062 29.562 26.6519 27.4963C25.7657 24.7234 28.7141 23.5017 28.7887 23.4534C28.7804 23.2445 28.7804 23.0355 28.7887 22.8265L28.1344 22.4568C27.8197 22.28 27.5546 22.0549 27.3227 21.8058C27.0494 21.8218 26.7844 21.854 26.5111 21.854C24.4737 21.854 22.5688 21.3717 20.8378 20.568H20.1504C14.8747 20.568 10.6011 24.7153 10.6011 29.8272V32.142C10.6011 34.2719 12.3818 36 14.5765 36H35.7291C35.4226 35.5177 35.2156 34.9712 35.2156 34.3684V33.6289ZM14.3364 19.491C13.3756 18.5666 12.0588 17.996 10.6011 17.996H5.30056C2.37697 17.996 0 20.3027 0 23.14V25.712C0 27.1346 1.18434 28.284 2.65028 28.284H8.1082C8.62997 24.4742 10.9987 21.2672 14.3364 19.491Z" fill="white"/>
<path d="M50.5624 24.852L47.6151 24.292L47.212 26.4133L49.0956 27.469L50.5624 24.852ZM50.5624 21.428L49.0956 18.811L47.212 19.8667L47.6151 21.988L50.5624 21.428ZM52.6992 20.2304L51.2535 17.6017L51.243 17.6075L51.2324 17.6134L52.6992 20.2304ZM52.9725 19.5472L55.8361 18.653L55.8331 18.6434L55.83 18.6339L52.9725 19.5472ZM50.2228 14.9337L48.0456 16.9977L48.0523 17.0046L50.2228 14.9337ZM49.4774 14.8212L48.0318 12.1924L48.0212 12.1983L48.0107 12.2042L49.4774 14.8212ZM47.3406 16.0188L45.4273 18.3295L47.0123 19.6418L48.8073 18.6358L47.3406 16.0188ZM44.2845 14.3068H41.2845V16.4452L43.306 17.1427L44.2845 14.3068ZM43.8124 11.3409L43.1746 14.2723L43.191 14.2759L43.2076 14.2793L43.8124 11.3409ZM38.3297 11.3409L38.9346 14.2793L38.954 14.2753L38.9735 14.271L38.3297 11.3409ZM37.8576 14.3068L38.8361 17.1427L40.8576 16.4452V14.3068H37.8576ZM34.8015 16.0188L33.3348 18.6358L35.1298 19.6418L36.7148 18.3295L34.8015 16.0188ZM32.6647 14.8212L31.1813 17.4287L31.1896 17.4335L31.198 17.4382L32.6647 14.8212ZM31.9193 14.9337L34.0899 17.0046L34.0965 16.9976L31.9193 14.9337ZM29.1696 19.5472L26.3121 18.6339L26.309 18.6434L26.306 18.653L29.1696 19.5472ZM29.4429 20.2304L27.9595 22.838L27.9679 22.8427L27.9762 22.8474L29.4429 20.2304ZM31.5797 21.428L34.527 21.988L34.9301 19.8667L33.0465 18.811L31.5797 21.428ZM31.5797 24.852L33.0465 27.469L34.9301 26.4133L34.527 24.292L31.5797 24.852ZM29.4429 26.0496L30.8886 28.6783L30.8991 28.6725L30.9097 28.6666L29.4429 26.0496ZM29.1696 26.7328L26.306 27.6269L26.309 27.6365L26.3121 27.6461L29.1696 26.7328ZM31.9193 31.3463L34.0965 29.2823L34.0962 29.282L31.9193 31.3463ZM32.6647 31.4588L34.1103 34.0875L34.1209 34.0817L34.1314 34.0758L32.6647 31.4588ZM34.8015 30.2612L36.7148 27.9505L35.1298 26.6382L33.3348 27.6442L34.8015 30.2612ZM37.8576 31.9732H40.8576V29.8348L38.8361 29.1373L37.8576 31.9732ZM38.3297 34.939L38.9675 32.0076L38.9511 32.0041L38.9346 32.0007L38.3297 34.939ZM43.8124 34.939L43.2076 32.0007L43.188 32.0047L43.1686 32.0089L43.8124 34.939ZM44.2845 31.9732L43.306 29.1373L41.2845 29.8348V31.9732H44.2845ZM47.3406 30.2612L48.8073 27.6442L47.0123 26.6382L45.4273 27.9505L47.3406 30.2612ZM49.4774 31.4588L50.9608 28.8512L50.9525 28.8465L50.9441 28.8418L49.4774 31.4588ZM50.2228 31.3463L48.0522 29.2753L48.0456 29.2823L50.2228 31.3463ZM52.9725 26.7328L55.83 27.6461L55.8331 27.6365L55.8361 27.6269L52.9725 26.7328ZM52.6992 26.0496L54.1826 23.442L54.1742 23.4373L54.1659 23.4326L52.6992 26.0496ZM26.9666 17.9478L27.1196 20.9438L29.0492 20.8453L29.7576 19.0478L26.9666 17.9478ZM29.973 13.1896L27.8014 11.1197L27.8003 11.1209L29.973 13.1896ZM33.9898 12.6028L32.4931 15.2027L32.5035 15.2087L32.5139 15.2147L33.9898 12.6028ZM34.6441 12.9725L33.1682 15.5844L34.6978 16.4487L36.1999 15.5376L34.6441 12.9725ZM34.8429 12.86L36.3987 15.4251L37.1456 14.972L37.5326 14.1888L34.8429 12.86ZM35.2156 33.6289H38.2156V31.7853L36.5708 30.9525L35.2156 33.6289ZM34.6524 33.3155L36.1448 30.713L34.6594 29.8612L33.1706 30.707L34.6524 33.3155ZM29.9813 33.0904L27.8089 35.1594L27.8162 35.1671L27.8236 35.1748L29.9813 33.0904ZM26.6519 27.4963L29.5118 26.5904L29.5095 26.5831L26.6519 27.4963ZM28.7887 23.4534L30.4183 25.9723L31.854 25.0434L31.7863 23.3346L28.7887 23.4534ZM28.7887 22.8265L31.7863 22.9453L31.8588 21.1156L30.2646 20.2147L28.7887 22.8265ZM28.1344 22.4568L29.6103 19.8449L29.6039 19.8413L28.1344 22.4568ZM27.3227 21.8058L29.5188 19.7619L28.5565 18.728L27.1466 18.8109L27.3227 21.8058ZM20.8378 20.568L22.1013 17.847L21.5004 17.568H20.8378V20.568ZM35.7291 36V39H41.1898L38.2611 34.391L35.7291 36ZM8.1082 28.284V31.284H10.7253L11.0805 28.6911L8.1082 28.284ZM53.5096 25.412C53.7953 23.9087 53.7953 22.3713 53.5096 20.868L47.6151 21.988C47.7601 22.7513 47.7601 23.5287 47.6151 24.292L53.5096 25.412ZM52.0291 24.045L54.1659 22.8474L51.2324 17.6134L49.0956 18.811L52.0291 24.045ZM54.1448 22.8591C55.6728 22.0188 56.3342 20.2483 55.8361 18.653L50.1088 20.4414C49.7763 19.3767 50.2224 18.1687 51.2535 17.6017L54.1448 22.8591ZM55.83 18.6339C55.1325 16.4515 53.9396 14.4834 52.3933 12.8628L48.0523 17.0046C48.9907 17.9882 49.7026 19.1708 50.1149 20.4606L55.83 18.6339ZM52.4 12.8697C51.2604 11.6677 49.4625 11.4057 48.0318 12.1924L50.923 17.4499C49.9892 17.9634 48.8042 17.7978 48.0456 16.9976L52.4 12.8697ZM48.0107 12.2042L45.8739 13.4017L48.8073 18.6358L50.9441 17.4382L48.0107 12.2042ZM49.2539 13.7081C48.0689 12.7268 46.7159 11.9721 45.2631 11.4708L43.306 17.1427C44.0894 17.413 44.8069 17.8157 45.4273 18.3295L49.2539 13.7081ZM47.2845 14.3068V11.9116H41.2845V14.3068H47.2845ZM47.2845 11.9116C47.2845 10.18 46.0509 8.73882 44.4173 8.40254L43.2076 14.2793C42.1206 14.0556 41.2845 13.0966 41.2845 11.9116H47.2845ZM44.4503 8.40952C42.1764 7.91474 39.8591 7.93329 37.6858 8.41082L38.9735 14.271C40.3118 13.977 41.7546 13.9634 43.1746 14.2723L44.4503 8.40952ZM37.7248 8.40254C36.0912 8.73882 34.8576 10.18 34.8576 11.9116H40.8576C40.8576 13.0966 40.0215 14.0556 38.9346 14.2793L37.7248 8.40254ZM34.8576 11.9116V14.3068H40.8576V11.9116H34.8576ZM36.879 11.4708C35.4263 11.9721 34.0732 12.7268 32.8882 13.7081L36.7148 18.3295C37.3353 17.8157 38.0527 17.413 38.8361 17.1427L36.879 11.4708ZM36.2682 13.4017L34.1314 12.2042L31.198 17.4382L33.3348 18.6358L36.2682 13.4017ZM34.1481 12.2136C32.6945 11.3866 30.8717 11.6782 29.7421 12.8697L34.0965 16.9976C33.3479 17.7873 32.1545 17.9824 31.1813 17.4287L34.1481 12.2136ZM29.7488 12.8628C28.2025 14.4834 27.0096 16.4515 26.3121 18.6339L32.0272 20.4606C32.4395 19.1708 33.1514 17.9882 34.0898 17.0046L29.7488 12.8628ZM26.306 18.653C25.7903 20.3046 26.5297 22.0246 27.9595 22.838L30.9264 17.6228C31.8758 18.163 32.3833 19.3203 32.0333 20.4414L26.306 18.653ZM27.9762 22.8474L30.113 24.045L33.0465 18.811L30.9097 17.6134L27.9762 22.8474ZM28.6325 20.868C28.3468 22.3713 28.3468 23.9087 28.6325 25.412L34.527 24.292C34.382 23.5287 34.382 22.7513 34.527 21.988L28.6325 20.868ZM30.113 22.235L27.9762 23.4326L30.9097 28.6666L33.0465 27.469L30.113 22.235ZM27.9973 23.4208C26.4693 24.2612 25.8079 26.0317 26.306 27.6269L32.0333 25.8386C32.3657 26.9033 31.9197 28.1112 30.8886 28.6783L27.9973 23.4208ZM26.3121 27.6461C27.0112 29.8336 28.2054 31.7896 29.7424 33.4105L34.0962 29.282C33.1486 28.2827 32.4378 27.1041 32.0272 25.8194L26.3121 27.6461ZM29.7421 33.4102C30.8817 34.6123 32.6796 34.8743 34.1103 34.0875L31.2191 28.8301C32.1529 28.3166 33.3379 28.4821 34.0965 29.2823L29.7421 33.4102ZM34.1314 34.0758L36.2682 32.8782L33.3348 27.6442L31.198 28.8418L34.1314 34.0758ZM32.8882 32.5719C34.0732 33.5531 35.4263 34.3078 36.879 34.8091L38.8361 29.1373C38.0527 28.867 37.3353 28.4643 36.7148 27.9505L32.8882 32.5719ZM34.8576 31.9732V34.3684H40.8576V31.9732H34.8576ZM34.8576 34.3684C34.8576 36.1 36.0912 37.5412 37.7248 37.8774L38.9346 32.0007C40.0215 32.2244 40.8576 33.1833 40.8576 34.3684H34.8576ZM37.6918 37.8705C39.9657 38.3652 42.283 38.3467 44.4563 37.8691L43.1686 32.0089C41.8303 32.303 40.3875 32.3166 38.9675 32.0076L37.6918 37.8705ZM44.4173 37.8774C46.0509 37.5412 47.2845 36.1 47.2845 34.3684H41.2845C41.2845 33.1833 42.1206 32.2244 43.2076 32.0007L44.4173 37.8774ZM47.2845 34.3684V31.9732H41.2845V34.3684H47.2845ZM45.2631 34.8091C46.7159 34.3078 48.0689 33.5531 49.2539 32.5719L45.4273 27.9505C44.8069 28.4643 44.0894 28.867 43.306 29.1373L45.2631 34.8091ZM45.8739 32.8782L48.0107 34.0758L50.9441 28.8418L48.8073 27.6442L45.8739 32.8782ZM47.994 34.0664C49.4476 34.8933 51.2704 34.6017 52.4 33.4102L48.0456 29.2823C48.7942 28.4927 49.9876 28.2976 50.9608 28.8512L47.994 34.0664ZM52.3933 33.4172C53.9396 31.7966 55.1325 29.8285 55.83 27.6461L50.1149 25.8194C49.7026 27.1092 48.9907 28.2918 48.0523 29.2754L52.3933 33.4172ZM55.8361 27.6269C56.3518 25.9754 55.6124 24.2554 54.1826 23.442L51.2157 28.6571C50.2663 28.117 49.7588 26.9596 50.1088 25.8386L55.8361 27.6269ZM54.1659 23.4326L52.0291 22.235L49.0956 27.469L51.2324 28.6666L54.1659 23.4326ZM41.0793 24.0382C40.4352 24.0382 40.0625 23.549 40.0625 23.14H34.0625C34.0625 27.023 37.2842 30.0382 41.0793 30.0382V24.0382ZM40.0625 23.14C40.0625 22.735 40.4394 22.2418 41.0793 22.2418V16.2418C37.2966 16.2418 34.0625 19.253 34.0625 23.14H40.0625ZM41.0793 22.2418C41.7192 22.2418 42.0962 22.735 42.0962 23.14H48.0962C48.0962 19.253 44.8621 16.2418 41.0793 16.2418V22.2418ZM42.0962 23.14C42.0962 23.549 41.7234 24.0382 41.0793 24.0382V30.0382C44.8745 30.0382 48.0962 27.023 48.0962 23.14H42.0962ZM7.95084 18.424C12.4459 18.424 16.2514 14.8582 16.2514 10.28H10.2514C10.2514 11.3762 9.30299 12.424 7.95084 12.424V18.424ZM16.2514 10.28C16.2514 5.70173 12.4459 2.13597 7.95084 2.13597V8.13597C9.30299 8.13597 10.2514 9.18373 10.2514 10.28H16.2514ZM7.95084 2.13597C3.45581 2.13597 -0.34972 5.70173 -0.34972 10.28H5.65028C5.65028 9.18373 6.59869 8.13597 7.95084 8.13597V2.13597ZM-0.34972 10.28C-0.34972 14.8582 3.45581 18.424 7.95084 18.424V12.424C6.59869 12.424 5.65028 11.3762 5.65028 10.28H-0.34972ZM26.5028 20.996C26.8175 20.996 27.0828 20.9557 27.163 20.9441C27.2018 20.9386 27.1934 20.9397 27.2174 20.9363C27.2291 20.9346 27.2308 20.9344 27.2279 20.9348C27.2226 20.9354 27.1812 20.9407 27.1196 20.9438L26.8136 14.9517C26.6733 14.9588 26.5543 14.9721 26.4719 14.9826C26.4303 14.9879 26.3937 14.993 26.3669 14.9968C26.3535 14.9988 26.3408 15.0006 26.3311 15.002C26.3204 15.0036 26.3134 15.0046 26.3064 15.0056C26.2757 15.01 26.2899 15.0076 26.3182 15.0047C26.3501 15.0015 26.4156 14.996 26.5028 14.996V20.996ZM29.7576 19.0478C30.3147 17.6343 31.1244 16.3309 32.1457 15.2582L27.8003 11.1209C26.2044 12.7971 24.9933 14.7729 24.1756 16.8477L29.7576 19.0478ZM32.1446 15.2594C32.1795 15.2228 32.2588 15.1768 32.3665 15.1768V9.17682C30.6522 9.17682 28.9923 9.87029 27.8014 11.1197L32.1446 15.2594ZM32.3665 15.1768C32.4373 15.1768 32.4806 15.1956 32.4931 15.2027L35.4866 10.0029C34.5218 9.44744 33.4387 9.17682 32.3665 9.17682V15.1768ZM32.5139 15.2147L33.1682 15.5844L36.12 10.3607L35.4657 9.99097L32.5139 15.2147ZM36.1999 15.5376C36.1791 15.5502 36.1647 15.5583 36.1617 15.56C36.1606 15.5606 36.1619 15.5599 36.1809 15.5495C36.195 15.5418 36.2268 15.5245 36.2611 15.5053C36.2972 15.485 36.3447 15.4578 36.3987 15.4251L33.2871 10.295C33.3079 10.2823 33.3223 10.2742 33.3253 10.2725C33.3265 10.2719 33.3251 10.2727 33.3061 10.2831C33.292 10.2907 33.2602 10.3081 33.2259 10.3273C33.1898 10.3476 33.1423 10.3748 33.0883 10.4075L36.1999 15.5376ZM37.5326 14.1888C38.2924 12.6509 38.7705 10.8968 38.7705 9.00201H32.7705C32.7705 9.87211 32.5529 10.7222 32.1532 11.5312L37.5326 14.1888ZM38.7705 9.00201C38.7705 2.28579 33.1926 -3 26.4945 -3V3C30.0497 3 32.7705 5.76779 32.7705 9.00201H38.7705ZM26.4945 -3C19.7964 -3 14.2268 2.27775 14.2268 8.99397H20.2268C20.2268 5.75975 22.9393 3 26.4945 3V-3ZM14.2268 8.99397C14.2268 15.7102 19.8047 20.996 26.5028 20.996V14.996C22.9476 14.996 20.2268 12.2282 20.2268 8.99397H14.2268ZM36.5708 30.9525C36.4704 30.9016 36.3766 30.8459 36.1448 30.713L33.16 35.9179C33.2926 35.994 33.5798 36.1633 33.8604 36.3054L36.5708 30.9525ZM33.1706 30.707C33.0742 30.7618 32.975 30.8193 32.9019 30.8615C32.8219 30.9076 32.7592 30.9435 32.7015 30.9753C32.587 31.0386 32.5252 31.0676 32.4877 31.0832C32.4559 31.0964 32.4451 31.0983 32.4441 31.0985C32.4435 31.0987 32.4244 31.1031 32.3748 31.1031V37.1031C34.3194 37.1031 35.6123 36.2205 36.1342 35.924L33.1706 30.707ZM32.3748 31.1031C32.2831 31.1031 32.193 31.062 32.1389 31.0061L27.8236 35.1748C29.0119 36.4048 30.6611 37.1031 32.3748 37.1031V31.1031ZM32.1537 31.0215C30.9424 29.7495 30.0239 28.2071 29.5118 26.5904L23.7919 28.4022C24.5884 30.9169 25.989 33.2485 27.8089 35.1594L32.1537 31.0215ZM29.5095 26.5831C29.4655 26.4453 29.5029 26.471 29.4727 26.5709C29.4534 26.6347 29.4375 26.6204 29.5177 26.5374C29.6005 26.4517 29.7195 26.362 29.8478 26.2846C29.9061 26.2495 29.9559 26.2231 29.9913 26.2052C30.0092 26.1962 30.0244 26.1888 30.0449 26.179C30.0494 26.1768 30.0762 26.1639 30.0988 26.1528C30.1106 26.147 30.1384 26.1332 30.172 26.1157C30.1817 26.1106 30.2907 26.0548 30.4183 25.9723L27.1591 20.9346C27.7341 20.5626 26.1445 21.3934 25.2022 22.3689C24.0197 23.5931 22.9284 25.7002 23.7943 28.4096L29.5095 26.5831ZM31.7863 23.3346C31.7812 23.2048 31.7812 23.0751 31.7863 22.9453L25.791 22.7077C25.7796 22.9959 25.7796 23.2841 25.791 23.5723L31.7863 23.3346ZM30.2646 20.2147L29.6103 19.845L26.6585 25.0686L27.3128 25.4384L30.2646 20.2147ZM29.6039 19.8413C29.6144 19.8473 29.5872 19.8355 29.5188 19.7619L25.1267 23.8496C25.522 24.2744 26.0249 24.7127 26.6649 25.0723L29.6039 19.8413ZM27.1466 18.8109C26.6132 18.8423 26.6838 18.854 26.5111 18.854V24.854C26.885 24.854 27.4857 24.8014 27.4989 24.8006L27.1466 18.8109ZM26.5111 18.854C24.9575 18.854 23.4817 18.488 22.1013 17.847L19.5744 23.289C21.6559 24.2555 23.9899 24.854 26.5111 24.854V18.854ZM20.8378 17.568H20.1504V23.568H20.8378V17.568ZM20.1504 17.568C13.305 17.568 7.60112 22.9727 7.60112 29.8272H13.6011C13.6011 26.458 16.4444 23.568 20.1504 23.568V17.568ZM7.60112 29.8272V32.142H13.6011V29.8272H7.60112ZM7.60112 32.142C7.60112 36.0129 10.8103 39 14.5765 39V33C13.9532 33 13.6011 32.5309 13.6011 32.142H7.60112ZM14.5765 39H35.7291V33H14.5765V39ZM38.2611 34.391C38.2178 34.3228 38.206 34.2882 38.2056 34.2872C38.2056 34.2872 38.2063 34.2893 38.2074 34.2934C38.2084 34.2976 38.2097 34.3035 38.211 34.3111C38.2136 34.3269 38.2156 34.3465 38.2156 34.3684H32.2156C32.2156 35.6833 32.6714 36.7818 33.197 37.609L38.2611 34.391ZM38.2156 34.3684V33.6289H32.2156V34.3684H38.2156ZM16.4163 17.3291C14.9126 15.8823 12.8562 14.996 10.6011 14.996V20.996C11.2614 20.996 11.8387 21.251 12.2564 21.6529L16.4163 17.3291ZM10.6011 14.996H5.30056V20.996H10.6011V14.996ZM5.30056 14.996C0.805532 14.996 -3 18.5617 -3 23.14H3C3 22.0437 3.94841 20.996 5.30056 20.996V14.996ZM-3 23.14V25.712H3V23.14H-3ZM-3 25.712C-3 28.8756 -0.387094 31.284 2.65028 31.284V25.284C2.71339 25.284 2.79582 25.3118 2.8647 25.3786C2.93529 25.4471 3 25.5682 3 25.712H-3ZM2.65028 31.284H8.1082V25.284H2.65028V31.284ZM11.0805 28.6911C11.4638 25.892 13.2076 23.49 15.7458 22.1393L12.9269 16.8426C8.7897 19.0444 5.79614 23.0565 5.13594 27.8769L11.0805 28.6911Z" fill="white" mask="url(#path-1-inside-1)"/>
</svg>
